<?xml version="1.0" encoding="UTF-8" standalone="no"?>
<!-- Generator: Adobe Illustrator 25.0.1, SVG Export Plug-In . SVG Version: 6.00 Build 0)  -->

<svg
   version="1.1"
   x="0px"
   y="0px"
   viewBox="0 0 167 29.999998"
   enable-background="new 0 0 95.273 17.35"
   xml:space="preserve"
   id="svg64"
   sodipodi:docname="logo-white.svg"
   width="167"
   height="30"
   inkscape:version="1.1 (ce6663b3b7, 2021-05-25)"
   xmlns:inkscape="http://www.inkscape.org/namespaces/inkscape"
   xmlns:sodipodi="http://sodipodi.sourceforge.net/DTD/sodipodi-0.dtd"
   xmlns="http://www.w3.org/2000/svg"
   xmlns:svg="http://www.w3.org/2000/svg"><defs
   id="defs68" /><sodipodi:namedview
   id="namedview66"
   pagecolor="#ffffff"
   bordercolor="#666666"
   borderopacity="1.0"
   inkscape:pageshadow="2"
   inkscape:pageopacity="0.0"
   inkscape:pagecheckerboard="0"
   showgrid="false"
   width="167px"
   inkscape:zoom="6.0510321"
   inkscape:cx="51.809343"
   inkscape:cy="14.625604"
   inkscape:window-width="1366"
   inkscape:window-height="660"
   inkscape:window-x="0"
   inkscape:window-y="27"
   inkscape:window-maximized="1"
   inkscape:current-layer="svg64" />
<g
   id="Camera_Logo_1_">
</g>
<g
   id="logo_text"
   transform="matrix(1.8312608,0,0,2.3234201,-2.9098734,-5.3787172)">
	<path
   fill-rule="evenodd"
   clip-rule="evenodd"
   fill="#ffffff"
   d="m 16.492,3.025 c -0.154,-0.024 -0.303,0.012 -0.418,0.09 l -0.007,0.004 c -0.113,0.078 -0.194,0.196 -0.216,0.335 l -0.619,3.842 c -0.023,0.141 0.019,0.281 0.106,0.39 0.086,0.109 0.216,0.189 0.37,0.213 l 6.925,1.083 C 22.786,9.006 22.935,8.97 23.051,8.893 23.167,8.814 23.25,8.695 23.273,8.554 L 23.892,4.712 C 23.915,4.571 23.873,4.431 23.787,4.322 23.701,4.213 23.57,4.133 23.417,4.109 L 20.646,3.676 C 20.572,3.664 20.521,3.598 20.532,3.53 20.543,3.462 20.612,3.416 20.686,3.427 l 2.771,0.433 c 0.226,0.035 0.42,0.154 0.547,0.316 0.128,0.161 0.19,0.367 0.156,0.578 L 23.541,8.596 C 23.507,8.806 23.384,8.982 23.212,9.098 23.04,9.213 22.818,9.266 22.591,9.231 L 15.666,8.148 C 15.44,8.113 15.246,7.994 15.119,7.832 14.992,7.67 14.93,7.464 14.963,7.255 l 0.619,-3.842 c 0.033,-0.206 0.153,-0.379 0.32,-0.494 l 0.009,-0.007 c 0.172,-0.115 0.394,-0.169 0.621,-0.133 l 0.691,0.108 c 0.075,0.012 0.126,0.077 0.115,0.145 -0.011,0.068 -0.08,0.116 -0.155,0.104 z M 15.901,2.917 c -0.051,0.041 -0.06,0.115 -0.019,0.168 z m 0,0"
   id="path3" />
	<path
   fill-rule="evenodd"
   clip-rule="evenodd"
   fill="#ffffff"
   d="M 19.484,3.365 C 19.507,3.224 19.476,3.086 19.406,2.979 19.337,2.873 19.232,2.797 19.104,2.777 L 17.956,2.598 c -0.127,-0.02 -0.252,0.02 -0.351,0.1 C 17.506,2.778 17.433,2.9 17.411,3.041 17.4,3.109 17.341,3.158 17.28,3.149 17.218,3.139 17.178,3.075 17.188,3.007 17.222,2.797 17.33,2.618 17.476,2.499 17.623,2.38 17.808,2.321 17.997,2.35 l 1.147,0.179 c 0.189,0.029 0.346,0.142 0.447,0.3 0.102,0.158 0.148,0.361 0.114,0.571 -0.011,0.068 -0.07,0.117 -0.131,0.108 -0.06,-0.011 -0.101,-0.075 -0.09,-0.143 z m 0,0"
   id="path5" />
	<path
   fill-rule="evenodd"
   clip-rule="evenodd"
   fill="#ffffff"
   d="m 23.296,4.608 c 0.08,0.013 0.131,0.107 0.115,0.21 -0.017,0.103 -0.095,0.179 -0.175,0.167 L 21.731,4.75 C 21.651,4.737 21.6,4.641 21.616,4.538 21.633,4.435 21.711,4.361 21.791,4.373 Z M 21.792,4.373"
   id="path7" />
	<path
   fill-rule="evenodd"
   clip-rule="evenodd"
   fill="#ffffff"
   d="m 18.716,4.02 c 0.586,0.092 1.084,0.378 1.415,0.763 V 4.784 C 20.462,5.17 20.626,5.659 20.546,6.157 20.466,6.655 20.155,7.069 19.72,7.336 19.284,7.603 18.722,7.721 18.135,7.63 17.55,7.539 17.053,7.254 16.722,6.867 16.391,6.48 16.227,5.992 16.307,5.494 c 0.08,-0.498 0.39,-0.912 0.826,-1.179 h 0.002 C 17.571,4.048 18.133,3.929 18.716,4.02 Z M 17.31,4.523 c -0.377,0.229 -0.644,0.587 -0.713,1.017 -0.069,0.43 0.074,0.852 0.359,1.184 v 10e-4 c 0.285,0.333 0.714,0.578 1.219,0.657 0.505,0.079 0.99,-0.024 1.367,-0.254 C 19.917,6.899 20.184,6.541 20.254,6.111 20.323,5.681 20.182,5.26 19.897,4.927 19.611,4.593 19.181,4.347 18.676,4.268 18.171,4.189 17.686,4.292 17.31,4.521 Z m 0,-10e-4"
   id="path9" />
	<path
   fill="#ffffff"
   d="m 1.589,2.488 h 1.508 c 0.865,0 1.448,0.034 1.75,0.103 0.432,0.096 0.786,0.295 1.06,0.595 0.274,0.3 0.412,0.677 0.412,1.132 0,0.457 -0.134,0.835 -0.401,1.132 C 5.649,5.746 5.28,5.946 4.81,6.049 4.467,6.123 3.826,6.161 2.885,6.161 H 2.345 V 9.353 H 1.589 Z M 2.345,3.16 V 5.489 L 3.626,5.503 C 4.144,5.503 4.523,5.46 4.763,5.375 5.004,5.289 5.193,5.151 5.33,4.96 5.467,4.769 5.536,4.556 5.536,4.32 5.536,4.09 5.467,3.88 5.33,3.689 5.193,3.498 5.012,3.362 4.787,3.281 4.562,3.2 4.194,3.16 3.683,3.16 Z"
   id="path11" />
	<path
   fill="#ffffff"
   d="M 7.872,2.488 H 9.38 c 0.841,0 1.41,0.031 1.709,0.094 0.449,0.093 0.815,0.294 1.096,0.6 0.281,0.307 0.422,0.685 0.422,1.133 0,0.374 -0.097,0.703 -0.291,0.986 -0.194,0.284 -0.471,0.498 -0.831,0.642 -0.36,0.145 -0.858,0.219 -1.492,0.222 l 2.722,3.187 H 11.779 L 9.057,6.165 H 8.629 V 9.352 H 7.872 Z M 8.629,3.16 v 2.333 l 1.304,0.009 c 0.505,0 0.879,-0.044 1.121,-0.131 0.242,-0.087 0.431,-0.226 0.567,-0.418 0.136,-0.191 0.204,-0.405 0.204,-0.642 0,-0.23 -0.069,-0.439 -0.206,-0.628 C 11.481,3.495 11.301,3.36 11.078,3.279 10.854,3.2 10.483,3.16 9.964,3.16 Z"
   id="path13" />
	<path
   fill="#ffffff"
   d="m 26.019,2.488 h 1.508 c 0.865,0 1.448,0.034 1.75,0.103 0.432,0.096 0.786,0.295 1.06,0.595 0.274,0.3 0.412,0.677 0.412,1.132 0,0.457 -0.134,0.835 -0.401,1.132 -0.268,0.297 -0.636,0.497 -1.106,0.6 -0.343,0.075 -0.985,0.112 -1.925,0.112 h -0.54 V 9.354 H 26.02 V 2.488 Z m 0.756,0.672 v 2.329 l 1.281,0.014 c 0.518,0 0.897,-0.043 1.137,-0.128 0.24,-0.085 0.429,-0.224 0.566,-0.415 0.137,-0.191 0.206,-0.404 0.206,-0.64 0,-0.23 -0.069,-0.44 -0.206,-0.631 C 29.622,3.498 29.441,3.362 29.216,3.281 28.991,3.2 28.625,3.16 28.114,3.16 Z"
   id="path15" />
	<path
   fill="#ffffff"
   d="m 32.267,2.488 h 4.338 V 3.16 h -3.582 v 2.151 h 3.551 V 5.983 H 33.023 V 8.68 h 3.551 V 9.352 H 32.266 V 2.488 Z"
   id="path17" />
	<path
   fill="#ffffff"
   d="m 37.954,2.488 h 1.508 c 0.841,0 1.41,0.031 1.709,0.094 0.449,0.093 0.815,0.294 1.096,0.6 0.281,0.306 0.422,0.685 0.422,1.133 0,0.374 -0.097,0.703 -0.291,0.986 -0.194,0.284 -0.471,0.498 -0.831,0.642 -0.36,0.145 -0.858,0.219 -1.492,0.222 l 2.722,3.187 H 41.861 L 39.138,6.165 H 38.71 V 9.352 H 37.953 V 2.488 Z M 38.71,3.16 v 2.333 l 1.304,0.009 c 0.505,0 0.879,-0.044 1.121,-0.131 0.242,-0.087 0.431,-0.226 0.567,-0.418 0.136,-0.192 0.204,-0.405 0.204,-0.642 0,-0.23 -0.069,-0.439 -0.206,-0.628 C 41.562,3.495 41.382,3.36 41.159,3.279 40.935,3.2 40.564,3.16 40.045,3.16 Z"
   id="path19" />
	<path
   fill="#ffffff"
   d="M 43.62,3.16 V 2.488 h 4.148 V 3.16 H 46.08 V 9.353 H 45.308 V 3.16 Z"
   id="path21" />
	<path
   fill="#ffffff"
   d="m 48.262,2.488 h 0.871 l 1.937,2.831 1.907,-2.831 h 0.875 L 51.454,6.072 V 9.353 H 50.708 V 6.072 Z"
   id="path23" />
	<path
   fill="#ffffff"
   d="m 54.314,8.074 0.643,-0.35 c 0.453,0.756 0.976,1.134 1.57,1.134 0.254,0 0.492,-0.054 0.715,-0.161 0.223,-0.107 0.393,-0.251 0.51,-0.432 0.117,-0.181 0.175,-0.372 0.175,-0.574 0,-0.23 -0.086,-0.456 -0.257,-0.677 C 57.433,6.709 57.001,6.342 56.373,5.913 55.742,5.481 55.349,5.168 55.194,4.975 54.926,4.651 54.793,4.301 54.793,3.925 c 0,-0.299 0.079,-0.571 0.237,-0.817 0.158,-0.246 0.38,-0.439 0.666,-0.581 0.286,-0.142 0.598,-0.212 0.934,-0.212 0.357,0 0.69,0.08 1.001,0.24 0.311,0.16 0.639,0.455 0.986,0.884 L 57.999,3.864 C 57.714,3.522 57.471,3.296 57.271,3.187 57.07,3.078 56.852,3.024 56.615,3.024 c -0.305,0 -0.555,0.084 -0.749,0.252 -0.194,0.168 -0.291,0.375 -0.291,0.621 0,0.149 0.034,0.294 0.103,0.434 0.069,0.14 0.194,0.292 0.376,0.457 0.099,0.087 0.425,0.316 0.978,0.686 0.655,0.439 1.105,0.829 1.348,1.171 0.244,0.342 0.365,0.686 0.365,1.031 0,0.498 -0.208,0.93 -0.625,1.297 -0.417,0.367 -0.924,0.551 -1.521,0.551 -0.46,0 -0.877,-0.111 -1.251,-0.334 C 54.975,8.969 54.63,8.597 54.314,8.074 Z"
   id="path25" />
	<path
   fill="#ffffff"
   d="m 60.341,2.488 h 1.508 c 0.865,0 1.448,0.034 1.75,0.103 0.432,0.096 0.786,0.295 1.06,0.595 0.274,0.3 0.412,0.677 0.412,1.132 0,0.457 -0.134,0.835 -0.401,1.132 -0.267,0.297 -0.636,0.497 -1.106,0.6 -0.343,0.075 -0.985,0.112 -1.925,0.112 h -0.54 V 9.354 H 60.342 V 2.488 Z m 0.756,0.672 v 2.329 l 1.281,0.014 c 0.518,0 0.897,-0.043 1.137,-0.128 0.24,-0.085 0.429,-0.224 0.566,-0.415 0.137,-0.191 0.206,-0.404 0.206,-0.64 0,-0.23 -0.069,-0.44 -0.206,-0.631 C 63.944,3.498 63.763,3.362 63.538,3.281 63.315,3.2 62.947,3.16 62.436,3.16 Z"
   id="path27" />
	<path
   fill="#ffffff"
   d="M 81.966,3.762 81.369,4.177 C 81.04,3.788 80.644,3.493 80.183,3.293 79.722,3.092 79.215,2.992 78.662,2.992 c -0.604,0 -1.163,0.131 -1.678,0.394 -0.515,0.263 -0.914,0.616 -1.197,1.059 -0.283,0.443 -0.425,0.942 -0.425,1.496 0,0.837 0.317,1.535 0.95,2.095 0.633,0.56 1.432,0.84 2.396,0.84 1.06,0 1.947,-0.376 2.661,-1.129 l 0.597,0.411 c -0.377,0.436 -0.848,0.772 -1.413,1.01 -0.565,0.238 -1.195,0.357 -1.891,0.357 -1.324,0 -2.369,-0.4 -3.134,-1.199 -0.642,-0.675 -0.962,-1.49 -0.962,-2.445 0,-1.005 0.389,-1.85 1.166,-2.536 0.777,-0.686 1.751,-1.029 2.921,-1.029 0.707,0 1.345,0.127 1.914,0.38 0.569,0.253 1.036,0.609 1.399,1.066 z"
   id="path29" />
	<path
   fill="#ffffff"
   d="m 83.49,2.488 h 4.338 V 3.16 h -3.582 v 2.151 h 3.551 V 5.983 H 84.246 V 8.68 h 3.551 V 9.352 H 83.49 Z"
   id="path31" />
	<path
   fill="#ffffff"
   d="m 88.353,8.074 0.643,-0.35 c 0.453,0.756 0.976,1.134 1.57,1.134 0.254,0 0.492,-0.054 0.715,-0.161 0.223,-0.107 0.393,-0.251 0.509,-0.432 0.116,-0.181 0.175,-0.372 0.175,-0.574 0,-0.23 -0.086,-0.456 -0.257,-0.677 C 91.471,6.709 91.039,6.342 90.411,5.913 89.78,5.481 89.387,5.168 89.232,4.975 88.964,4.651 88.831,4.301 88.831,3.925 c 0,-0.299 0.079,-0.571 0.237,-0.817 0.158,-0.246 0.38,-0.439 0.666,-0.581 0.286,-0.142 0.598,-0.212 0.934,-0.212 0.357,0 0.69,0.08 1.001,0.24 0.311,0.16 0.639,0.455 0.986,0.884 L 92.037,3.864 C 91.752,3.522 91.509,3.296 91.309,3.187 91.108,3.078 90.89,3.024 90.653,3.024 c -0.305,0 -0.555,0.084 -0.749,0.252 -0.194,0.168 -0.291,0.375 -0.291,0.621 0,0.149 0.034,0.294 0.103,0.434 0.069,0.14 0.194,0.292 0.376,0.457 0.1,0.087 0.425,0.316 0.978,0.686 0.655,0.439 1.105,0.829 1.348,1.171 0.244,0.342 0.365,0.686 0.365,1.031 0,0.498 -0.208,0.93 -0.625,1.297 C 91.741,9.34 91.234,9.524 90.637,9.524 90.177,9.524 89.76,9.413 89.386,9.19 89.014,8.969 88.669,8.597 88.353,8.074 Z"
   id="path33" />
	<g
   id="g57">
		<path
   fill="#ffffff"
   d="M 1.808,12.155 H 2.42 c 0.351,0 0.587,0.015 0.71,0.045 0.175,0.042 0.319,0.129 0.43,0.26 0.111,0.131 0.167,0.296 0.167,0.494 0,0.2 -0.054,0.364 -0.163,0.494 -0.109,0.13 -0.258,0.217 -0.449,0.262 -0.139,0.033 -0.399,0.049 -0.781,0.049 H 2.115 v 1.393 H 1.808 Z m 0.307,0.293 v 1.017 l 0.52,0.006 c 0.21,0 0.364,-0.019 0.461,-0.056 0.097,-0.037 0.174,-0.098 0.23,-0.181 0.056,-0.083 0.083,-0.177 0.083,-0.28 0,-0.1 -0.028,-0.192 -0.083,-0.275 C 3.27,12.596 3.197,12.536 3.106,12.501 3.015,12.466 2.866,12.448 2.658,12.448 Z"
   id="path35" />
		<path
   fill="#ffffff"
   d="m 10.254,12.155 h 0.307 v 1.257 h 1.563 v -1.257 h 0.307 v 2.997 h -0.307 v -1.446 h -1.563 v 1.446 h -0.307 z"
   id="path37" />
		<path
   fill="#ffffff"
   d="m 20.558,12.08 c 0.465,0 0.854,0.151 1.168,0.454 0.313,0.303 0.47,0.676 0.47,1.118 0,0.439 -0.156,0.811 -0.469,1.116 -0.313,0.306 -0.694,0.458 -1.144,0.458 -0.455,0 -0.84,-0.152 -1.153,-0.456 -0.313,-0.304 -0.47,-0.672 -0.47,-1.104 0,-0.288 0.071,-0.555 0.214,-0.801 0.143,-0.246 0.337,-0.438 0.584,-0.577 0.247,-0.139 0.514,-0.208 0.8,-0.208 z m 0.014,0.291 c -0.227,0 -0.443,0.058 -0.646,0.173 -0.204,0.116 -0.362,0.271 -0.477,0.467 -0.114,0.196 -0.171,0.414 -0.171,0.654 0,0.356 0.126,0.657 0.379,0.902 0.253,0.245 0.558,0.368 0.915,0.368 0.238,0 0.459,-0.056 0.662,-0.169 0.203,-0.113 0.361,-0.267 0.475,-0.463 0.114,-0.196 0.17,-0.413 0.17,-0.653 0,-0.238 -0.057,-0.453 -0.17,-0.645 -0.114,-0.192 -0.274,-0.346 -0.48,-0.462 -0.207,-0.114 -0.426,-0.172 -0.657,-0.172 z"
   id="path39" />
		<path
   fill="#ffffff"
   d="m 28.425,12.448 v -0.293 h 1.682 v 0.293 h -0.685 v 2.703 H 29.11 v -2.703 z"
   id="path41" />
		<path
   fill="#ffffff"
   d="m 37.93,12.08 c 0.465,0 0.854,0.151 1.168,0.454 0.313,0.303 0.47,0.676 0.47,1.118 0,0.439 -0.156,0.811 -0.469,1.116 -0.313,0.306 -0.694,0.458 -1.144,0.458 -0.455,0 -0.84,-0.152 -1.153,-0.456 -0.313,-0.304 -0.47,-0.672 -0.47,-1.104 0,-0.288 0.071,-0.555 0.214,-0.801 0.143,-0.246 0.337,-0.438 0.584,-0.577 0.247,-0.139 0.513,-0.208 0.8,-0.208 z m 0.014,0.291 c -0.227,0 -0.443,0.058 -0.646,0.173 -0.204,0.116 -0.362,0.271 -0.477,0.467 -0.114,0.196 -0.171,0.414 -0.171,0.654 0,0.356 0.126,0.657 0.379,0.902 0.253,0.245 0.558,0.368 0.915,0.368 0.238,0 0.459,-0.056 0.662,-0.169 0.203,-0.113 0.361,-0.267 0.475,-0.463 0.114,-0.196 0.17,-0.413 0.17,-0.653 0,-0.238 -0.057,-0.453 -0.17,-0.645 -0.114,-0.192 -0.274,-0.346 -0.48,-0.462 -0.207,-0.114 -0.426,-0.172 -0.657,-0.172 z"
   id="path43" />
		<path
   fill="#ffffff"
   d="m 49.064,12.658 -0.238,0.22 c -0.171,-0.164 -0.359,-0.289 -0.563,-0.374 -0.204,-0.085 -0.403,-0.127 -0.596,-0.127 -0.241,0 -0.47,0.058 -0.688,0.173 -0.218,0.115 -0.387,0.272 -0.506,0.47 -0.12,0.198 -0.18,0.406 -0.18,0.626 0,0.225 0.062,0.44 0.186,0.643 0.124,0.203 0.295,0.363 0.514,0.479 0.218,0.116 0.458,0.174 0.718,0.174 0.316,0 0.583,-0.087 0.802,-0.261 0.218,-0.174 0.348,-0.399 0.388,-0.676 h -0.979 v -0.289 h 1.323 c -0.003,0.463 -0.144,0.831 -0.423,1.103 -0.279,0.272 -0.652,0.408 -1.12,0.408 -0.568,0 -1.017,-0.189 -1.348,-0.566 -0.255,-0.291 -0.382,-0.627 -0.382,-1.008 0,-0.284 0.073,-0.548 0.219,-0.792 0.146,-0.244 0.347,-0.436 0.601,-0.574 0.255,-0.138 0.543,-0.207 0.864,-0.207 0.26,0 0.505,0.046 0.735,0.137 0.23,0.092 0.454,0.239 0.673,0.441 z"
   id="path45" />
		<path
   fill="#ffffff"
   d="m 55.764,12.155 h 0.612 c 0.341,0 0.572,0.014 0.693,0.041 0.182,0.041 0.33,0.128 0.445,0.262 0.114,0.134 0.171,0.299 0.171,0.495 0,0.163 -0.039,0.307 -0.118,0.43 -0.079,0.124 -0.191,0.217 -0.337,0.28 -0.146,0.063 -0.348,0.096 -0.605,0.097 l 1.104,1.391 H 57.35 L 56.246,13.76 h -0.174 v 1.391 h -0.307 v -2.996 z m 0.307,0.293 v 1.019 l 0.529,0.004 c 0.205,0 0.356,-0.019 0.455,-0.057 0.098,-0.038 0.175,-0.099 0.23,-0.182 0.055,-0.084 0.083,-0.177 0.083,-0.28 0,-0.1 -0.028,-0.192 -0.084,-0.274 -0.056,-0.082 -0.129,-0.141 -0.22,-0.176 -0.091,-0.035 -0.241,-0.053 -0.452,-0.053 h -0.541 z"
   id="path47" />
		<path
   fill="#ffffff"
   d="m 65.515,12.155 1.432,2.997 H 66.616 L 66.133,14.166 H 64.81 l -0.478,0.986 H 63.99 l 1.451,-2.997 z m -0.039,0.637 -0.526,1.085 H 66 Z"
   id="path49" />
		<path
   fill="#ffffff"
   d="m 73.338,12.155 h 0.612 c 0.351,0 0.587,0.015 0.71,0.045 0.175,0.042 0.319,0.129 0.43,0.26 0.111,0.131 0.167,0.296 0.167,0.494 0,0.2 -0.054,0.364 -0.163,0.494 -0.109,0.13 -0.258,0.217 -0.449,0.262 -0.139,0.033 -0.399,0.049 -0.781,0.049 h -0.219 v 1.393 h -0.307 z m 0.307,0.293 v 1.017 l 0.52,0.006 c 0.21,0 0.364,-0.019 0.461,-0.056 0.098,-0.037 0.174,-0.098 0.23,-0.181 0.056,-0.083 0.083,-0.177 0.083,-0.28 0,-0.1 -0.028,-0.192 -0.083,-0.275 -0.056,-0.083 -0.129,-0.143 -0.22,-0.178 -0.091,-0.035 -0.24,-0.053 -0.448,-0.053 z"
   id="path51" />
		<path
   fill="#ffffff"
   d="m 81.783,12.155 h 0.307 v 1.257 h 1.564 v -1.257 h 0.307 v 2.997 H 83.654 V 13.706 H 82.09 v 1.446 h -0.307 z"
   id="path53" />
		<path
   fill="#ffffff"
   d="m 90.382,12.155 h 0.353 l 0.786,1.236 0.773,-1.236 h 0.355 l -0.973,1.565 v 1.432 H 91.373 V 13.72 Z"
   id="path55" />
	</g>
	<path
   fill="#ffffff"
   d="m 72.139,5.882 c -0.117,0 -0.208,0.089 -0.208,0.204 v 2.793 h -1.479 v -1.14 c 0,-0.107 -0.091,-0.2 -0.201,-0.2 h -1.069 c -0.118,0 -0.213,0.094 -0.213,0.2 V 8.88 H 67.494 V 6.179 c 0,-0.108 -0.091,-0.197 -0.208,-0.197 -0.11,0 -0.201,0.089 -0.201,0.197 v 2.905 c 0,0.108 0.091,0.197 0.201,0.197 h 1.896 c 0.11,0 0.201,-0.09 0.201,-0.197 V 7.943 h 0.66 v 1.141 c 0,0.108 0.091,0.197 0.209,0.197 h 1.888 c 0.11,0 0.201,-0.09 0.201,-0.197 V 6.086 C 72.34,5.97 72.25,5.882 72.139,5.882 Z m 0,0"
   id="path59" />
	<path
   fill="#ffffff"
   d="M 73.273,6.041 71.628,4.422 V 3.317 c 0,-0.115 -0.095,-0.204 -0.212,-0.204 -0.11,0 -0.201,0.089 -0.201,0.204 V 4.016 L 69.858,2.678 c -0.042,-0.041 -0.091,-0.064 -0.14,-0.064 -0.057,0 -0.106,0.023 -0.148,0.064 l -3.409,3.34 c -0.082,0.08 -0.087,0.209 0,0.282 0.076,0.086 0.207,0.08 0.288,0 l 3.268,-3.195 3.26,3.225 c 0.034,0.033 0.083,0.052 0.148,0.052 0.057,0 0.106,-0.019 0.148,-0.052 0.076,-0.073 0.082,-0.208 0,-0.289 z m 0,0"
   id="path61" />
</g>
</svg>
