<svg width="19" height="20" viewBox="0 0 19 20" fill="none" xmlns="http://www.w3.org/2000/svg">
<path d="M9.5 0C10.6611 0 11.6111 0.897394 11.6111 1.99421C11.6111 3.09102 10.6611 3.98842 9.5 3.98842C8.33889 3.98842 7.38889 3.09102 7.38889 1.99421C7.38889 0.897394 8.33889 0 9.5 0ZM19 5.98263C19 6.53331 18.5536 6.97973 18.0029 6.97973H15.8333C14.0844 6.97973 12.6667 8.3975 12.6667 10.1464V18.8865C12.6667 19.4695 12.1941 19.9421 11.6111 19.9421C11.0281 19.9421 10.5556 19.4695 10.5556 18.8865V15.015C10.5556 14.4321 10.083 13.9595 9.5 13.9595C8.91703 13.9595 8.44444 14.4321 8.44444 15.015V18.8865C8.44444 19.4695 7.97186 19.9421 7.38889 19.9421C6.80592 19.9421 6.33333 19.4695 6.33333 18.8865V10.1464C6.33333 8.39749 4.91557 6.97973 3.16667 6.97973H0.997105C0.44642 6.97973 0 6.53331 0 5.98263C0 5.43194 0.446419 4.98552 0.997105 4.98552H18.0029C18.5536 4.98552 19 5.43194 19 5.98263Z" fill="#9F1F15"/>
</svg>
