<svg width="18" height="16" viewBox="0 0 18 16" fill="none" xmlns="http://www.w3.org/2000/svg">
<path fill-rule="evenodd" clip-rule="evenodd" d="M6.88502e-07 8.12446C7.14583e-07 7.82612 0.118474 7.54 0.329484 7.32907C0.54041 7.11806 0.826527 6.99959 1.12484 6.99959L14.1577 6.99959L9.32744 2.17158C9.22287 2.06702 9.13991 1.9429 9.08329 1.80626C9.02667 1.66954 8.99755 1.52309 8.99755 1.37524C8.99755 1.22732 9.02667 1.08086 9.08329 0.944226C9.13991 0.807508 9.22287 0.68339 9.32744 0.578826C9.43208 0.47418 9.5562 0.391217 9.69284 0.334682C9.82951 0.278063 9.97596 0.248935 10.1239 0.248935C10.2718 0.248935 10.4182 0.278063 10.5549 0.334682C10.6915 0.391218 10.8157 0.474181 10.9203 0.578826L17.6695 7.32801C17.7743 7.43257 17.8574 7.55669 17.9141 7.69333C17.9708 7.83 18 7.9765 18 8.12446C18 8.27242 17.9708 8.41892 17.9141 8.55558C17.8574 8.69225 17.7743 8.81638 17.6695 8.92087L10.9203 15.6701C10.7091 15.8813 10.4226 16 10.1239 16C9.82515 16 9.53869 15.8813 9.32744 15.6701C9.11626 15.4589 8.99755 15.1724 8.99755 14.8737C8.99755 14.575 9.11626 14.2885 9.32744 14.0773L14.1577 9.24933L1.12484 9.24933C0.826527 9.24933 0.54041 9.13081 0.329484 8.91986C0.118474 8.70891 6.6242e-07 8.42279 6.88502e-07 8.12446Z" fill="#231F20"/>
</svg>
