<svg width="25" height="22" viewBox="0 0 25 22" fill="none" xmlns="http://www.w3.org/2000/svg">
<path d="M15.3847 12.2221C15.3847 13.968 13.9694 15.3833 12.2236 15.3833C10.4778 15.3833 9.0625 13.968 9.0625 12.2221C9.0625 10.4763 10.4778 9.06104 12.2236 9.06104C13.9694 9.06104 15.3847 10.4763 15.3847 12.2221Z" stroke="#231F20" stroke-width="1.5"/>
<path d="M6.31889 3.19444H6.64922L6.87221 2.95074L8.88589 0.75H15.5586L17.5722 2.95074L17.7952 3.19444H18.1256H22C22.9302 3.19444 23.6944 3.95866 23.6944 4.88889V19.5556C23.6944 20.4858 22.9302 21.25 22 21.25H2.44444C1.51421 21.25 0.75 20.4858 0.75 19.5556V4.88889C0.75 3.95866 1.51421 3.19444 2.44444 3.19444H6.31889ZM5.36111 12.2222C5.36111 16.0098 8.43467 19.0833 12.2222 19.0833C16.0098 19.0833 19.0833 16.0098 19.0833 12.2222C19.0833 8.43468 16.0098 5.36111 12.2222 5.36111C8.43468 5.36111 5.36111 8.43468 5.36111 12.2222Z" stroke="#231F20" stroke-width="1.5"/>
</svg>
