<svg width="28" height="25" viewBox="0 0 28 25" fill="none" xmlns="http://www.w3.org/2000/svg">
<path d="M13.9999 18.1028C16.4236 18.1028 18.3885 16.138 18.3885 13.7143C18.3885 11.2905 16.4236 9.32568 13.9999 9.32568C11.5762 9.32568 9.61133 11.2905 9.61133 13.7143C9.61133 16.138 11.5762 18.1028 13.9999 18.1028Z" fill="white"/>
<path d="M9.88516 0L7.37544 2.74286H3.02801C1.51944 2.74286 0.285156 3.97714 0.285156 5.48571V21.9429C0.285156 23.4514 1.51944 24.6857 3.02801 24.6857H24.9709C26.4794 24.6857 27.7137 23.4514 27.7137 21.9429V5.48571C27.7137 3.97714 26.4794 2.74286 24.9709 2.74286H20.6234L18.1137 0H9.88516ZM13.9994 20.5714C10.2143 20.5714 7.1423 17.4994 7.1423 13.7143C7.1423 9.92914 10.2143 6.85714 13.9994 6.85714C17.7846 6.85714 20.8566 9.92914 20.8566 13.7143C20.8566 17.4994 17.7846 20.5714 13.9994 20.5714Z" fill="white"/>
</svg>
