<svg width="28" height="25" viewBox="0 0 28 25" fill="none" xmlns="http://www.w3.org/2000/svg">
<path d="M9.88564 0L7.37593 2.74286H3.0285C1.51993 2.74286 0.285645 3.97714 0.285645 5.48571V21.9429C0.285645 23.4514 1.51993 24.6857 3.0285 24.6857H24.9714C26.4799 24.6857 27.7142 23.4514 27.7142 21.9429V5.48571C27.7142 3.97714 26.4799 2.74286 24.9714 2.74286H20.6239L18.1142 0H9.88564ZM13.9999 20.5714C10.2148 20.5714 7.14279 17.4994 7.14279 13.7143C7.14279 9.92914 10.2148 6.85714 13.9999 6.85714C17.7851 6.85714 20.8571 9.92914 20.8571 13.7143C20.8571 17.4994 17.7851 20.5714 13.9999 20.5714Z" fill="white"/>
</svg>
