<svg width="24" height="26" viewBox="0 0 24 26" fill="none" xmlns="http://www.w3.org/2000/svg">
<path d="M21.1802 14.0783C21.2265 13.6774 21.2574 13.2605 21.2574 12.8276C21.2574 12.3947 21.2265 11.9778 21.1648 11.5769L23.7723 9.46035C24.0037 9.26793 24.0654 8.91517 23.9266 8.64259L21.4579 4.20103C21.3036 3.91241 20.9796 3.81621 20.7019 3.91241L17.6316 5.19517C16.9835 4.68207 16.3047 4.26517 15.5487 3.94448L15.0858 0.545172C15.0395 0.224483 14.7772 0 14.4686 0H9.53137C9.22279 0 8.97593 0.224483 8.92964 0.545172L8.46677 3.94448C7.71076 4.26517 7.01646 4.6981 6.38387 5.19517L3.31351 3.91241C3.03579 3.80017 2.71178 3.91241 2.55749 4.20103L0.0888635 8.64259C-0.0654259 8.93121 -0.0037099 9.26793 0.243153 9.46035L2.85064 11.5769C2.78893 11.9778 2.74264 12.4107 2.74264 12.8276C2.74264 13.2445 2.7735 13.6774 2.83521 14.0783L0.227724 16.1948C-0.00371027 16.3872 -0.0654259 16.74 0.0734346 17.0126L2.54206 21.4541C2.69635 21.7428 3.02036 21.839 3.29808 21.7428L6.36844 20.46C7.01646 20.9731 7.69533 21.39 8.45135 21.7107L8.91421 25.11C8.97593 25.4307 9.22279 25.6552 9.53137 25.6552H14.4686C14.7772 25.6552 15.0395 25.4307 15.0704 25.11L15.5332 21.7107C16.2892 21.39 16.9835 20.9571 17.6161 20.46L20.6865 21.7428C20.9642 21.855 21.2882 21.7428 21.4425 21.4541L23.9111 17.0126C24.0654 16.724 24.0037 16.3872 23.7568 16.1948L21.1802 14.0783ZM12 17.6379C9.45423 17.6379 7.37132 15.4733 7.37132 12.8276C7.37132 10.1819 9.45423 8.01724 12 8.01724C14.5458 8.01724 16.6287 10.1819 16.6287 12.8276C16.6287 15.4733 14.5458 17.6379 12 17.6379Z" fill="#343A40"/>
</svg>
