<svg width="24" height="14" viewBox="0 0 24 14" fill="none" xmlns="http://www.w3.org/2000/svg">
<path d="M12 7H19M5 7C4.20435 7 3.44129 6.68393 2.87868 6.12132C2.31607 5.55871 2 4.79565 2 4C2 3.20435 2.31607 2.44129 2.87868 1.87868C3.44129 1.31607 4.20435 1 5 1C5.79565 1 6.55871 1.31607 7.12132 1.87868C7.68393 2.44129 8 3.20435 8 4C8 4.79565 7.68393 5.55871 7.12132 6.12132C6.55871 6.68393 5.79565 7 5 7ZM9 13V11C9 8.75 7.213 7 4.964 7H5.018C2.768 7 1 8.75 1 11V13H9ZM12 2H24H12ZM12 12H22H12Z" stroke="#ffffff"/>
</svg>
