<svg width="22" height="22" viewBox="0 0 22 22" fill="none" xmlns="http://www.w3.org/2000/svg">
<path d="M12.9714 5.27732L12.9715 5.27747C13.1778 5.48346 13.4574 5.59917 13.7489 5.59917C14.0404 5.59917 14.32 5.48346 14.5262 5.27747L14.5265 5.27716C14.7325 5.07091 14.8482 4.79133 14.8482 4.49983C14.8482 4.20833 14.7325 3.92875 14.5265 3.72249L14.5264 3.72234L11.7764 0.972341L11.7762 0.972187C11.57 0.766193 11.2904 0.650488 10.9989 0.650488C10.7074 0.650488 10.4278 0.766193 10.2215 0.972187L10.2214 0.972341L7.47138 3.72234L7.47123 3.72219L7.46281 3.73123C7.2685 3.93975 7.16272 4.21555 7.16775 4.50053C7.17278 4.7855 7.28822 5.0574 7.48976 5.25894C7.6913 5.46048 7.9632 5.57592 8.24817 5.58095C8.53315 5.58598 8.80895 5.4802 9.01747 5.28589L9.01762 5.28605L9.02636 5.27732L9.89887 4.4048V7.24983C9.89887 7.54157 10.0148 7.82136 10.2211 8.02765C10.4273 8.23393 10.7071 8.34983 10.9989 8.34983C11.2906 8.34983 11.5704 8.23393 11.7767 8.02765C11.983 7.82136 12.0989 7.54157 12.0989 7.24983V4.4048L12.9714 5.27732Z" fill="black" stroke="white" stroke-width="0.7"/>
<path d="M4.40431 9.89985L5.27683 9.02733L5.27698 9.02749L5.2854 9.01845C5.47971 8.80993 5.58549 8.53413 5.58046 8.24915C5.57543 7.96418 5.45999 7.69228 5.25845 7.49074C5.05691 7.2892 4.78501 7.17375 4.50004 7.16873C4.21506 7.1637 3.93926 7.26948 3.73074 7.46378L3.73059 7.46362L3.72185 7.47236L0.971853 10.2224L0.971699 10.2225C0.765705 10.4288 0.65 10.7083 0.65 10.9998C0.65 11.2913 0.765705 11.5709 0.971699 11.7772L0.971853 11.7773L3.71791 14.5234C3.81769 14.6292 3.93748 14.7141 4.07035 14.7733C4.20529 14.8334 4.35094 14.8658 4.49864 14.8684C4.64634 14.871 4.79305 14.8438 4.93002 14.7885C5.06699 14.7332 5.19141 14.6508 5.29587 14.5464C5.40032 14.4419 5.48267 14.3175 5.53799 14.1805C5.59331 14.0436 5.62048 13.8968 5.61788 13.7492C5.61527 13.6015 5.58294 13.4558 5.52282 13.3209C5.46362 13.188 5.37866 13.0682 5.27289 12.9684L4.40431 12.0998H7.24934C7.54108 12.0998 7.82087 11.984 8.02716 11.7777C8.23345 11.5714 8.34934 11.2916 8.34934 10.9998C8.34934 10.7081 8.23345 10.4283 8.02716 10.222C7.82087 10.0157 7.54108 9.89985 7.24934 9.89985H4.40431Z" fill="black" stroke="white" stroke-width="0.7"/>
<path d="M16.7224 14.5272L16.7227 14.5275C16.9289 14.7335 17.2085 14.8492 17.5 14.8492C17.7915 14.8492 18.0711 14.7335 18.2773 14.5275L18.2775 14.5273L21.0275 11.7773L21.0276 11.7772C21.2336 11.5709 21.3493 11.2913 21.3493 10.9998C21.3493 10.7083 21.2336 10.4288 21.0276 10.2225L21.0275 10.2224L18.2775 7.47236L18.2776 7.47221L18.2686 7.46378C18.0601 7.26948 17.7843 7.1637 17.4993 7.16873C17.2143 7.17375 16.9424 7.2892 16.7409 7.49074C16.5394 7.69228 16.4239 7.96418 16.4189 8.24915C16.4139 8.53412 16.5196 8.80993 16.7139 9.01845L16.7138 9.0186L16.7225 9.02733L17.595 9.89985H14.75C14.4583 9.89985 14.1785 10.0157 13.9722 10.222C13.7659 10.4283 13.65 10.7081 13.65 10.9998C13.65 11.2916 13.7659 11.5714 13.9722 11.7777C14.1785 11.984 14.4583 12.0998 14.75 12.0998H17.595L16.7225 12.9724L16.7224 12.9725C16.5164 13.1788 16.4007 13.4583 16.4007 13.7498C16.4007 14.0413 16.5164 14.3209 16.7224 14.5272Z" fill="black" stroke="white" stroke-width="0.7"/>
<path d="M14.5265 16.7227L14.5262 16.7224C14.32 16.5164 14.0404 16.4007 13.7489 16.4007C13.4574 16.4007 13.1778 16.5164 12.9715 16.7224L12.9714 16.7225L12.0989 17.595V14.75C12.0989 14.4583 11.983 14.1785 11.7767 13.9722C11.5704 13.7659 11.2906 13.65 10.9989 13.65C10.7071 13.65 10.4273 13.7659 10.2211 13.9722C10.0148 14.1785 9.89887 14.4583 9.89887 14.75V17.595L9.02636 16.7225L9.02651 16.7224L9.01747 16.7139C8.80895 16.5196 8.53315 16.4139 8.24817 16.4189C7.9632 16.4239 7.6913 16.5394 7.48976 16.7409C7.28822 16.9424 7.17278 17.2143 7.16775 17.4993C7.16272 17.7843 7.2685 18.0601 7.46281 18.2686L7.46265 18.2688L7.47138 18.2775L10.2214 21.0275L10.2215 21.0276C10.4278 21.2336 10.7074 21.3493 10.9989 21.3493C11.2904 21.3493 11.57 21.2336 11.7762 21.0276L11.7764 21.0275L14.5264 18.2775L14.5265 18.2773C14.7325 18.0711 14.8482 17.7915 14.8482 17.5C14.8482 17.2085 14.7325 16.9289 14.5265 16.7227Z" fill="black" stroke="white" stroke-width="0.7"/>
</svg>
