<svg width="18" height="18" viewBox="0 0 18 18" fill="none" xmlns="http://www.w3.org/2000/svg">
<path d="M14.6606 16.7783H1.22172V3.33936H9.29729L10.519 2.11765H1.22172C0.897699 2.11765 0.58695 2.24636 0.357833 2.47548C0.128716 2.7046 0 3.01534 0 3.33936V16.7783C0 17.1023 0.128716 17.413 0.357833 17.6422C0.58695 17.8713 0.897699 18 1.22172 18H14.6606C14.9847 18 15.2954 17.8713 15.5245 17.6422C15.7536 17.413 15.8824 17.1023 15.8824 16.7783V7.61538L14.6606 8.8371V16.7783Z" fill="#ffffff"/>
<path d="M17.7132 2.32378L15.6718 0.286076C15.5812 0.195395 15.4736 0.123449 15.3551 0.0743587C15.2366 0.0252687 15.1096 0 14.9813 0C14.853 0 14.7259 0.0252687 14.6074 0.0743587C14.4889 0.123449 14.3813 0.195395 14.2907 0.286076L5.98579 8.62433L5.31341 11.5327C5.28476 11.6737 5.28777 11.8193 5.32222 11.959C5.35668 12.0987 5.42171 12.229 5.51265 12.3406C5.6036 12.4522 5.71818 12.5423 5.84818 12.6044C5.97817 12.6665 6.12033 12.699 6.26444 12.6997C6.33893 12.7079 6.41409 12.7079 6.48857 12.6997L9.42649 12.0528L17.7132 3.7024C17.8041 3.61197 17.8762 3.50453 17.9253 3.38625C17.9745 3.26797 17.9998 3.14116 17.9998 3.01309C17.9998 2.88502 17.9745 2.75822 17.9253 2.63993C17.8762 2.52165 17.8041 2.41421 17.7132 2.32378ZM8.7965 10.9341L6.57944 11.4239L7.09433 9.22899L13.3457 2.94658L15.054 4.65172L8.7965 10.9341ZM15.7385 3.96845L14.0302 2.26331L14.9692 1.30795L16.6895 3.02518L15.7385 3.96845Z" fill="#ffffff"/>
</svg>
