<svg width="21" height="21" viewBox="0 0 21 21" fill="none" xmlns="http://www.w3.org/2000/svg">
<path d="M18.75 0H2.25C1.65326 0 1.08097 0.237053 0.65901 0.65901C0.237053 1.08097 0 1.65326 0 2.25L0 18.75C0 19.3467 0.237053 19.919 0.65901 20.341C1.08097 20.7629 1.65326 21 2.25 21H8.68359V13.8605H5.73047V10.5H8.68359V7.93875C8.68359 5.02547 10.418 3.41625 13.0744 3.41625C14.3466 3.41625 15.6769 3.64313 15.6769 3.64313V6.5025H14.2111C12.7669 6.5025 12.3164 7.39875 12.3164 8.31797V10.5H15.5405L15.0248 13.8605H12.3164V21H18.75C19.3467 21 19.919 20.7629 20.341 20.341C20.7629 19.919 21 19.3467 21 18.75V2.25C21 1.65326 20.7629 1.08097 20.341 0.65901C19.919 0.237053 19.3467 0 18.75 0Z" fill="white"/>
</svg>
