<svg width="21" height="21" viewBox="0 0 21 21" fill="none" xmlns="http://www.w3.org/2000/svg">
<path d="M20.8976 6.19825C20.8858 5.3165 20.7207 4.44352 20.4097 3.61836C20.1401 2.92234 19.7281 2.29023 19.2003 1.76242C18.6725 1.2346 18.0404 0.822689 17.3444 0.552999C16.5298 0.247228 15.6693 0.081892 14.7994 0.0640316C13.6795 0.0139706 13.3244 0 10.4814 0C7.63838 0 7.27398 7.80663e-08 6.16216 0.0640316C5.29268 0.0820233 4.43255 0.247357 3.61836 0.552999C2.92223 0.822501 2.29002 1.23435 1.76219 1.76218C1.23435 2.29002 0.822501 2.92223 0.552999 3.61836C0.246616 4.4323 0.081638 5.29262 0.0651957 6.16216C0.0151347 7.28329 0 7.63838 0 10.4814C0 13.3244 -8.67403e-09 13.6876 0.0651957 14.8006C0.0826588 15.6714 0.246812 16.5306 0.552999 17.3467C0.822953 18.0426 1.2351 18.6746 1.76312 19.2022C2.29114 19.7298 2.9234 20.1415 3.61953 20.4109C4.43148 20.729 5.29176 20.9061 6.16332 20.9348C7.28446 20.9849 7.63954 21 10.4825 21C13.3255 21 13.6899 21 14.8018 20.9348C15.6716 20.9177 16.5322 20.7527 17.3467 20.447C18.0426 20.177 18.6745 19.765 19.2023 19.2372C19.7301 18.7094 20.1421 18.0775 20.4121 17.3816C20.7183 16.5667 20.8824 15.7075 20.8999 14.8355C20.9499 13.7155 20.9651 13.3605 20.9651 10.5163C20.9627 7.6733 20.9627 7.3124 20.8976 6.19825ZM10.4744 15.8577C7.501 15.8577 5.09225 13.4489 5.09225 10.4756C5.09225 7.50216 7.501 5.09341 10.4744 5.09341C11.9018 5.09341 13.2708 5.66046 14.2801 6.66981C15.2895 7.67915 15.8565 9.04812 15.8565 10.4756C15.8565 11.903 15.2895 13.272 14.2801 14.2813C13.2708 15.2906 11.9018 15.8577 10.4744 15.8577ZM16.0707 6.14935C15.3757 6.14935 14.8157 5.5882 14.8157 4.89433C14.8157 4.7296 14.8482 4.56648 14.9112 4.41428C14.9743 4.26209 15.0667 4.1238 15.1831 4.00732C15.2996 3.89083 15.4379 3.79843 15.5901 3.73539C15.7423 3.67235 15.9054 3.6399 16.0702 3.6399C16.2349 3.6399 16.398 3.67235 16.5502 3.73539C16.7024 3.79843 16.8407 3.89083 16.9572 4.00732C17.0737 4.1238 17.1661 4.26209 17.2291 4.41428C17.2921 4.56648 17.3246 4.7296 17.3246 4.89433C17.3246 5.5882 16.7634 6.14935 16.0707 6.14935Z" fill="white"/>
<path d="M10.4741 13.9717C12.405 13.9717 13.9703 12.4064 13.9703 10.4756C13.9703 8.54473 12.405 6.97946 10.4741 6.97946C8.54329 6.97946 6.97803 8.54473 6.97803 10.4756C6.97803 12.4064 8.54329 13.9717 10.4741 13.9717Z" fill="white"/>
</svg>
