<svg width="18" height="21" viewBox="0 0 18 21" fill="none" xmlns="http://www.w3.org/2000/svg">
<mask id="path-1-inside-1" fill="white">
<path d="M7.3679 3.57745C6.65911 3.57745 5.96623 3.78764 5.37689 4.18142C4.78755 4.5752 4.32822 5.1349 4.05698 5.78974C3.78573 6.44458 3.71476 7.16515 3.85304 7.86032C3.99132 8.5555 4.33264 9.19405 4.83383 9.69525C5.33502 10.1964 5.97358 10.5378 6.66875 10.676C7.36393 10.8143 8.08449 10.7433 8.73933 10.4721C9.39417 10.2009 9.95387 9.74152 10.3477 9.15218C10.7414 8.56284 10.9516 7.86997 10.9516 7.16117C10.9516 6.21071 10.5741 5.29918 9.90197 4.6271C9.2299 3.95502 8.31836 3.57745 7.3679 3.57745ZM7.3679 9.49403C6.90651 9.49403 6.45547 9.35721 6.07183 9.10087C5.6882 8.84454 5.38919 8.48019 5.21262 8.05392C5.03605 7.62765 4.98985 7.15859 5.07987 6.70606C5.16988 6.25353 5.39207 5.83785 5.71832 5.51159C6.04458 5.18534 6.46025 4.96315 6.91278 4.87314C7.36531 4.78313 7.83437 4.82933 8.26065 5.00589C8.68692 5.18246 9.05126 5.48147 9.3076 5.86511C9.56394 6.24874 9.70076 6.69978 9.70076 7.16117C9.6991 7.7788 9.45259 8.37057 9.01527 8.80671C8.57796 9.24286 7.98553 9.48778 7.3679 9.48778V9.49403Z"/>
</mask>
<path d="M10.9516 7.16117H12.9516H10.9516ZM7.3679 9.49403V11.494H9.3679V9.49403H7.3679ZM9.70076 7.16117L11.7008 7.16654V7.16117H9.70076ZM7.3679 9.48778L7.36791 7.48778L5.3679 7.48777V9.48778H7.3679ZM7.3679 1.57745C6.26355 1.57745 5.18399 1.90493 4.26575 2.51848L6.48803 5.84436C6.74848 5.67034 7.05467 5.57745 7.3679 5.57745V1.57745ZM4.26575 2.51848C3.34751 3.13203 2.63184 4.00409 2.20922 5.02438L5.90473 6.55511C6.0246 6.26572 6.22759 6.01838 6.48803 5.84436L4.26575 2.51848ZM2.20922 5.02438C1.7866 6.04467 1.67602 7.16737 1.89147 8.2505L5.81461 7.47014C5.7535 7.16293 5.78487 6.8445 5.90473 6.55511L2.20922 5.02438ZM1.89147 8.2505C2.10692 9.33364 2.63872 10.3286 3.41962 11.1095L6.24804 8.28103C6.02656 8.05955 5.87572 7.77735 5.81461 7.47014L1.89147 8.2505ZM3.41962 11.1095C4.20051 11.8904 5.19543 12.4222 6.27857 12.6376L7.05893 8.71446C6.75172 8.65336 6.46953 8.50252 6.24804 8.28103L3.41962 11.1095ZM6.27857 12.6376C7.36171 12.8531 8.48441 12.7425 9.5047 12.3199L7.97396 8.62434C7.68458 8.74421 7.36614 8.77557 7.05893 8.71446L6.27857 12.6376ZM9.5047 12.3199C10.525 11.8972 11.397 11.1816 12.0106 10.2633L8.68472 8.04104C8.51069 8.30148 8.26335 8.50447 7.97396 8.62434L9.5047 12.3199ZM12.0106 10.2633C12.6241 9.34508 12.9516 8.26553 12.9516 7.16117H8.95162C8.95162 7.4744 8.85874 7.7806 8.68472 8.04104L12.0106 10.2633ZM12.9516 7.16117C12.9516 5.68028 12.3633 4.26004 11.3162 3.21289L8.48776 6.04131C8.78477 6.33832 8.95162 6.74114 8.95162 7.16117H12.9516ZM11.3162 3.21289C10.269 2.16574 8.8488 1.57745 7.3679 1.57745V5.57745C7.78793 5.57745 8.19075 5.74431 8.48776 6.04131L11.3162 3.21289ZM7.3679 7.49403C7.30207 7.49403 7.23771 7.47451 7.18298 7.43794L4.96069 10.7638C5.67323 11.2399 6.51094 11.494 7.3679 11.494V7.49403ZM7.18298 7.43794C7.12824 7.40136 7.08557 7.34938 7.06038 7.28855L3.36486 8.81929C3.69281 9.61101 4.24816 10.2877 4.96069 10.7638L7.18298 7.43794ZM7.06038 7.28855C7.03519 7.22773 7.0286 7.1608 7.04144 7.09624L3.1183 6.31588C2.95111 7.15637 3.03692 8.02756 3.36486 8.81929L7.06038 7.28855ZM7.04144 7.09624C7.05428 7.03167 7.08598 6.97236 7.13254 6.92581L4.30411 4.09738C3.69815 4.70334 3.28548 5.47538 3.1183 6.31588L7.04144 7.09624ZM7.13254 6.92581C7.17909 6.87926 7.2384 6.84755 7.30296 6.83471L6.5226 2.91157C5.68211 3.07875 4.91007 3.49142 4.30411 4.09738L7.13254 6.92581ZM7.30296 6.83471C7.36753 6.82187 7.43446 6.82846 7.49528 6.85365L9.02601 3.15813C8.23429 2.83019 7.36309 2.74439 6.5226 2.91157L7.30296 6.83471ZM7.49528 6.85365C7.5561 6.87885 7.60809 6.92151 7.64466 6.97625L10.9705 4.75397C10.4944 4.04143 9.81774 3.48608 9.02601 3.15813L7.49528 6.85365ZM7.64466 6.97625C7.68124 7.03099 7.70076 7.09534 7.70076 7.16117H11.7008C11.7008 6.30422 11.4466 5.4665 10.9705 4.75397L7.64466 6.97625ZM7.70077 7.15581C7.70053 7.24394 7.66536 7.32837 7.60296 7.3906L10.4276 10.2228C11.2398 9.41276 11.6977 8.31367 11.7008 7.16654L7.70077 7.15581ZM7.60296 7.3906C7.54056 7.45283 7.45603 7.48778 7.36791 7.48778L7.36789 11.4878C8.51503 11.4878 9.61535 11.0329 10.4276 10.2228L7.60296 7.3906ZM5.3679 9.48778V9.49403H9.3679V9.48778H5.3679Z" fill="#ffffff" mask="url(#path-1-inside-1)"/>
<mask id="path-3-inside-2" fill="white">
<path d="M14.729 7.81165C14.3046 7.79985 13.8838 7.73041 13.4781 7.60525V7.96175C13.4781 10.501 11.9646 12.7588 10.8576 14.4099L10.6324 14.7414C9.55668 16.355 8.1307 18.1625 7.36142 19.0569C6.62341 18.1625 5.16615 16.355 4.09041 14.7414L3.87777 14.3849C2.77075 12.7338 1.25096 10.476 1.25096 7.93673C1.25475 6.88507 1.52991 5.8522 2.0498 4.93803C2.5697 4.02386 3.31674 3.25934 4.21865 2.71845C5.12055 2.17756 6.14679 1.8786 7.19808 1.85049C8.24937 1.82239 9.29012 2.06609 10.2196 2.55802C10.2694 2.12799 10.3789 1.70698 10.5449 1.30716C9.42173 0.764718 8.17901 0.51706 6.93374 0.587508C5.68846 0.657957 4.48161 1.04419 3.42682 1.70985C2.37203 2.3755 1.50402 3.29867 0.904528 4.39242C0.305036 5.48616 -0.00621253 6.7145 9.39617e-05 7.96175C9.39617e-05 10.8825 1.63872 13.3279 2.83955 15.1104L3.05845 15.4356C4.2532 17.1672 5.53489 18.8372 6.8986 20.4391L7.37393 20.9957L7.84925 20.4391C9.21279 18.837 10.4945 17.1671 11.6894 15.4356L11.9083 15.1042C13.1029 13.3217 14.7415 10.8825 14.7415 7.96175C14.7353 7.91171 14.729 7.86168 14.729 7.81165Z"/>
</mask>
<path d="M13.4781 7.60525L14.0678 5.69414L11.4781 4.89518V7.60525H13.4781ZM10.8576 14.4099L12.512 15.5337L12.5188 15.5237L10.8576 14.4099ZM10.6324 14.7414L8.97799 13.6177L8.97313 13.6248L8.96832 13.632L10.6324 14.7414ZM7.36142 19.0569L5.8188 20.3298L7.32968 22.1608L8.87768 20.3611L7.36142 19.0569ZM4.09041 14.7414L2.37277 15.766L2.39848 15.8091L2.42631 15.8508L4.09041 14.7414ZM3.87777 14.3849L5.59541 13.3604L5.56836 13.315L5.53896 13.2712L3.87777 14.3849ZM1.25096 7.93673L-0.749044 7.92952V7.93673H1.25096ZM10.2196 2.55802L9.28411 4.32573L11.87 5.69427L12.2064 2.78797L10.2196 2.55802ZM10.5449 1.30716L12.392 2.07402L13.1168 0.328277L11.4147 -0.493789L10.5449 1.30716ZM9.39617e-05 7.96175H2.00012L2.00007 7.95164L9.39617e-05 7.96175ZM2.83955 15.1104L4.49873 13.9937L4.49826 13.993L2.83955 15.1104ZM3.05845 15.4356L1.39927 16.5524L1.40572 16.562L1.41227 16.5715L3.05845 15.4356ZM6.8986 20.4391L5.3757 21.7355L5.37768 21.7379L6.8986 20.4391ZM7.37393 20.9957L5.853 22.2945L7.37393 24.0756L8.89485 22.2945L7.37393 20.9957ZM7.84925 20.4391L9.37018 21.7379L9.37229 21.7354L7.84925 20.4391ZM11.6894 15.4356L13.3355 16.5716L13.3471 16.5548L13.3583 16.5378L11.6894 15.4356ZM11.9083 15.1042L10.2469 13.9907L10.2394 14.002L11.9083 15.1042ZM14.7415 7.96175H16.7415V7.83723L16.7261 7.71368L14.7415 7.96175ZM14.7846 5.81242C14.5414 5.80566 14.3002 5.76587 14.0678 5.69414L12.8885 9.51636C13.4674 9.69496 14.0679 9.79404 14.6734 9.81087L14.7846 5.81242ZM11.4781 7.60525V7.96175H15.4781V7.60525H11.4781ZM11.4781 7.96175C11.4781 9.79348 10.3672 11.5498 9.19639 13.2962L12.5188 15.5237C13.5619 13.9678 15.4781 11.2085 15.4781 7.96175H11.4781ZM9.20315 13.2862L8.97799 13.6177L12.2869 15.8652L12.512 15.5337L9.20315 13.2862ZM8.96832 13.632C7.9452 15.1667 6.57064 16.9092 5.84515 17.7527L8.87768 20.3611C9.69075 19.4158 11.1682 17.5434 12.2965 15.8508L8.96832 13.632ZM8.90403 17.784C8.17186 16.8967 6.77003 15.1553 5.75451 13.632L2.42631 15.8508C3.56228 17.5548 5.07496 19.4284 5.8188 20.3298L8.90403 17.784ZM5.80805 13.7169L5.59541 13.3604L2.16013 15.4095L2.37277 15.766L5.80805 13.7169ZM5.53896 13.2712C4.36542 11.5208 3.25096 9.76682 3.25096 7.93673H-0.749044C-0.749044 11.1851 1.17609 13.9468 2.21658 15.4987L5.53896 13.2712ZM3.25094 7.94395C3.2535 7.2365 3.43859 6.54169 3.78832 5.92674L0.311285 3.94931C-0.378779 5.1627 -0.743995 6.53364 -0.749031 7.92952L3.25094 7.94395ZM3.78832 5.92674C4.13805 5.31178 4.64058 4.7975 5.24729 4.43365L3.19001 1.00325C1.9929 1.72118 1.00135 2.73593 0.311285 3.94931L3.78832 5.92674ZM5.24729 4.43365C5.85399 4.06979 6.54434 3.86869 7.25153 3.84978L7.14463 -0.148791C5.74925 -0.111488 4.38711 0.285324 3.19001 1.00325L5.24729 4.43365ZM7.25153 3.84978C7.95872 3.83087 8.65883 3.99481 9.28411 4.32573L11.1552 0.790319C9.92141 0.137374 8.54002 -0.186095 7.14463 -0.148791L7.25153 3.84978ZM12.2064 2.78797C12.2348 2.54252 12.2973 2.30223 12.392 2.07402L8.69772 0.540302C8.46048 1.11174 8.30404 1.71345 8.2329 2.32808L12.2064 2.78797ZM11.4147 -0.493789C9.98588 -1.18386 8.40495 -1.49892 6.82077 -1.4093L7.0467 2.58432C7.95307 2.53304 8.85758 2.7133 9.67505 3.10811L11.4147 -0.493789ZM6.82077 -1.4093C5.23659 -1.31968 3.70129 -0.828325 2.35944 0.0184897L4.4942 3.40121C5.26192 2.91671 6.14033 2.63559 7.0467 2.58432L6.82077 -1.4093ZM2.35944 0.0184897C1.01759 0.865304 -0.0866555 2.03971 -0.849302 3.43113L2.65836 5.35371C3.0947 4.55763 3.72648 3.8857 4.4942 3.40121L2.35944 0.0184897ZM-0.849302 3.43113C-1.61195 4.82254 -2.0079 6.38517 -1.99988 7.97186L2.00007 7.95164C1.99548 7.04383 2.22202 6.14979 2.65836 5.35371L-0.849302 3.43113ZM-1.99991 7.96175C-1.99991 11.5808 0.0254777 14.5129 1.18084 16.2279L4.49826 13.993C3.25197 12.143 2.00009 10.1842 2.00009 7.96175H-1.99991ZM1.18037 16.2272L1.39927 16.5524L4.71763 14.3189L4.49873 13.9937L1.18037 16.2272ZM1.41227 16.5715C2.64537 18.3586 3.96821 20.0822 5.3757 21.7355L8.4215 19.1426C7.10157 17.5922 5.86102 15.9758 4.70463 14.2998L1.41227 16.5715ZM5.37768 21.7379L5.853 22.2945L8.89485 19.697L8.41952 19.1403L5.37768 21.7379ZM8.89485 22.2945L9.37018 21.7379L6.32833 19.1403L5.853 19.697L8.89485 22.2945ZM9.37229 21.7354C10.7795 20.082 12.1023 18.3586 13.3355 16.5716L10.0433 14.2997C8.88669 15.9756 7.64607 17.5921 6.32622 19.1428L9.37229 21.7354ZM13.3583 16.5378L13.5772 16.2063L10.2394 14.002L10.0205 14.3335L13.3583 16.5378ZM13.5697 16.2176C14.7153 14.5082 16.7415 11.5804 16.7415 7.96175H12.7415C12.7415 10.1846 11.4904 12.1352 10.2469 13.9907L13.5697 16.2176ZM16.7261 7.71368C16.7243 7.69989 16.7237 7.69502 16.7233 7.69144C16.723 7.68869 16.7235 7.6924 16.7242 7.70001C16.7255 7.71429 16.729 7.75503 16.729 7.81165H12.729C12.729 8.00721 12.7534 8.18133 12.7569 8.20982L16.7261 7.71368Z" fill="#ffffff" mask="url(#path-3-inside-2)"/>
<path d="M14.8728 6.25431C16.5998 6.25431 17.9999 4.85424 17.9999 3.12716C17.9999 1.40008 16.5998 0 14.8728 0C13.1457 0 11.7456 1.40008 11.7456 3.12716C11.7456 4.85424 13.1457 6.25431 14.8728 6.25431Z" fill="#ffffff"/>
</svg>
