<svg width="15" height="13" viewBox="0 0 15 13" fill="none" xmlns="http://www.w3.org/2000/svg">
<path d="M13.1277 6.6894L6.13538 11.2783C4.79164 12.1602 2.989 11.7861 2.10713 10.4424C1.22526 9.09863 1.59935 7.29598 2.94308 6.41411L10.5434 1.42615C11.3825 0.875484 12.5104 1.10955 13.0611 1.94863C13.6117 2.7877 13.3777 3.91561 12.5386 4.46628L6.15432 8.65617C5.8199 8.87564 5.36673 8.78159 5.14725 8.44718C4.92778 8.11277 5.02183 7.65959 5.35624 7.44012L11.1325 3.64927L10.5339 2.73723L4.75769 6.52808C3.91861 7.07875 3.68455 8.20666 4.23522 9.04573C4.78589 9.88481 5.9138 10.1189 6.75287 9.56821L13.1371 5.37832C14.4809 4.49645 14.855 2.69381 13.9731 1.35007C13.0912 0.00633493 11.2886 -0.367756 9.94485 0.514115L2.34453 5.50207C0.496129 6.71515 -0.0179835 9.19252 1.19509 11.0409C2.40816 12.8893 4.88553 13.4034 6.73393 12.1904L13.7262 7.60144L13.1277 6.6894Z" fill="#9F1F15"/>
</svg>
