<svg width="184" height="155" viewBox="0 0 184 155" fill="none" xmlns="http://www.w3.org/2000/svg">
<path d="M171.373 0H12.6275C9.27962 0.00381617 6.06999 1.33425 3.70271 3.69944C1.33543 6.06462 0.00381955 9.27141 0 12.6163V142.384C0.00381955 145.729 1.33543 148.935 3.70271 151.301C6.06999 153.666 9.27962 154.996 12.6275 155H171.373C174.72 154.996 177.93 153.666 180.297 151.301C182.665 148.935 183.996 145.729 184 142.384V12.6163C183.996 9.27141 182.665 6.06462 180.297 3.69944C177.93 1.33425 174.72 0.00381617 171.373 0ZM12.6275 10.814H171.373C171.851 10.8144 172.309 11.0045 172.648 11.3424C172.986 11.6803 173.176 12.1384 173.176 12.6163V114.912L144.224 85.9844C141.854 83.6222 138.643 82.2956 135.295 82.2956C131.947 82.2956 128.736 83.6222 126.367 85.9844L107.708 104.625C107.369 104.963 106.91 105.153 106.431 105.153C105.953 105.153 105.494 104.963 105.155 104.625L64.851 64.3556C62.4812 61.9935 59.2704 60.6669 55.9229 60.6669C52.5755 60.6669 49.3646 61.9935 46.9949 64.3556L10.8235 100.494V12.6163C10.824 12.1384 11.0142 11.6803 11.3524 11.3424C11.6906 11.0045 12.1492 10.8144 12.6275 10.814ZM171.373 144.186H12.6275C12.1492 144.185 11.6908 143.995 11.3527 143.657C11.0145 143.32 10.8242 142.862 10.8235 142.384V115.786L54.6462 72.0029C54.9846 71.665 55.4435 71.4751 55.922 71.4751C56.4005 71.4751 56.8594 71.665 57.1978 72.0029L97.5038 112.272C99.8734 114.635 103.084 115.961 106.432 115.961C109.779 115.961 112.99 114.635 115.36 112.272L134.019 93.6308C134.357 93.2931 134.816 93.1034 135.295 93.1034C135.773 93.1034 136.232 93.2931 136.57 93.6308L173.176 130.204V142.384C173.176 142.862 172.985 143.32 172.647 143.657C172.309 143.995 171.851 144.185 171.373 144.186ZM110.877 58.6396C109.828 57.5915 109.055 56.3013 108.624 54.8831C108.194 53.465 108.12 51.9627 108.41 50.5092C108.699 49.0558 109.343 47.6962 110.284 46.5507C111.225 45.4052 112.434 44.5093 113.805 43.9423C115.175 43.3753 116.664 43.1547 118.14 43.3C119.616 43.4454 121.034 43.9522 122.267 44.7755C123.5 45.5989 124.511 46.7134 125.211 48.0204C125.91 49.3274 126.275 50.7864 126.275 52.2683V52.2701C126.275 54.0524 125.746 55.7946 124.754 57.2763C123.763 58.758 122.354 59.9127 120.706 60.5945C119.058 61.2762 117.244 61.4544 115.495 61.1064C113.745 60.7585 112.138 59.9 110.877 58.6396Z" fill="#F2F2F2"/>
</svg>
