<svg width="16" height="16" viewBox="0 0 16 16" fill="none" xmlns="http://www.w3.org/2000/svg">
<path d="M14.0952 7.61905H12.9524V4.57143C12.9524 3.73333 12.2667 3.04762 11.4286 3.04762H8.38095V1.90476C8.38095 0.853333 7.52762 0 6.47619 0C5.42476 0 4.57143 0.853333 4.57143 1.90476V3.04762H1.52381C0.685714 3.04762 0.00761904 3.73333 0.00761904 4.57143V7.46667H1.14286C2.2781 7.46667 3.2 8.38857 3.2 9.52381C3.2 10.659 2.2781 11.581 1.14286 11.581H0V14.4762C0 15.3143 0.685714 16 1.52381 16H4.41905V14.8571C4.41905 13.7219 5.34095 12.8 6.47619 12.8C7.61143 12.8 8.53333 13.7219 8.53333 14.8571V16H11.4286C12.2667 16 12.9524 15.3143 12.9524 14.4762V11.4286H14.0952C15.1467 11.4286 16 10.5752 16 9.52381C16 8.47238 15.1467 7.61905 14.0952 7.61905Z" fill="black"/>
</svg>
