<svg width="11" height="16" viewBox="0 0 11 16" fill="none" xmlns="http://www.w3.org/2000/svg">
<path d="M5.5 3.4375V5.5L8.25 2.75L5.5 0V2.0625C2.46125 2.0625 0 4.52375 0 7.5625C0 8.64188 0.31625 9.64563 0.8525 10.4913L1.85625 9.4875C1.54687 8.91687 1.375 8.25688 1.375 7.5625C1.375 5.28688 3.22438 3.4375 5.5 3.4375ZM10.1475 4.63375L9.14375 5.6375C9.44625 6.215 9.625 6.86812 9.625 7.5625C9.625 9.83813 7.77562 11.6875 5.5 11.6875V9.625L2.75 12.375L5.5 15.125V13.0625C8.53875 13.0625 11 10.6012 11 7.5625C11 6.48312 10.6838 5.47937 10.1475 4.63375Z" fill="#9F1F15"/>
</svg>
