<svg width="14" height="14" viewBox="0 0 14 14" fill="none" xmlns="http://www.w3.org/2000/svg">
<path d="M3.46598 4.37321C3.38798 4.2952 3.32612 4.20259 3.28391 4.10067C3.24171 3.99875 3.21999 3.88951 3.22 3.7792C3.22002 3.66888 3.24176 3.55965 3.28399 3.45774C3.32622 3.35583 3.3881 3.26323 3.46612 3.18524L6.40612 0.245941C6.56364 0.0884649 6.77726 0 7 0C7.22274 0 7.43636 0.0884649 7.59388 0.245941L10.5339 3.18524C10.6907 3.34289 10.7787 3.55631 10.7784 3.7787C10.7781 4.00109 10.6897 4.21429 10.5324 4.37156C10.3752 4.52884 10.162 4.61735 9.93965 4.61768C9.71726 4.61802 9.50382 4.53015 9.34612 4.37335L7.84 2.86765V8.68003C7.84 8.90281 7.7515 9.11647 7.59397 9.274C7.43644 9.43153 7.22278 9.52003 7 9.52003C6.77722 9.52003 6.56356 9.43153 6.40603 9.274C6.2485 9.11647 6.16 8.90281 6.16 8.68003V2.86765L4.65388 4.37335C4.49631 4.53082 4.28266 4.61926 4.0599 4.61923C3.83714 4.61921 3.62351 4.53071 3.46598 4.37321ZM13.16 7.84003C12.9372 7.84003 12.7236 7.92853 12.566 8.08606C12.4085 8.24359 12.32 8.45725 12.32 8.68003V12.32H1.68V8.68003C1.68 8.45725 1.5915 8.24359 1.43397 8.08606C1.27644 7.92853 1.06278 7.84003 0.84 7.84003C0.617218 7.84003 0.403561 7.92853 0.24603 8.08606C0.0884998 8.24359 0 8.45725 0 8.68003V12.6C0.000407624 12.9712 0.148038 13.3271 0.410501 13.5895C0.672963 13.852 1.02882 13.9996 1.4 14H12.6C12.9712 13.9996 13.327 13.852 13.5895 13.5895C13.852 13.3271 13.9996 12.9712 14 12.6V8.68003C14 8.45725 13.9115 8.24359 13.754 8.08606C13.5964 7.92853 13.3828 7.84003 13.16 7.84003Z" fill="#6C7277"/>
</svg>
