<svg width="28" height="21" viewBox="0 0 28 21" fill="none" xmlns="http://www.w3.org/2000/svg">
<path d="M27.4149 3.28579C27.0929 1.99243 26.1441 0.97382 24.9394 0.628141C22.7558 0 14 0 14 0C14 0 5.2442 0 3.06058 0.628141C1.8559 0.973875 0.907111 1.99243 0.585087 3.28579C0 5.63008 0 10.5212 0 10.5212C0 10.5212 0 15.4124 0.585087 17.7566C0.907111 19.05 1.8559 20.0262 3.06058 20.3719C5.2442 21 14 21 14 21C14 21 22.7558 21 24.9394 20.3719C26.1441 20.0262 27.0929 19.05 27.4149 17.7566C28 15.4124 28 10.5212 28 10.5212C28 10.5212 28 5.63008 27.4149 3.28579ZM11.1363 14.962V6.08043L18.4545 10.5213L11.1363 14.962Z" fill="white"/>
</svg>
